<svg width="32" height="32" viewBox="0 0 32 32" fill="none" xmlns="http://www.w3.org/2000/svg">
<g clip-path="url(#clip0_458_4484)">
<path d="M31.3599 28.5734C31.0437 28.6848 30.6617 28.7629 30.1785 28.7629C29.1941 28.7629 27.6812 28.4941 26.6335 27.6685C25.5858 28.4941 24.0735 28.7629 23.0892 28.7629C22.1049 28.7629 20.5925 28.4941 19.5442 27.6685C18.4965 28.4941 16.9842 28.7629 15.9999 28.7629C15.0156 28.7629 13.5033 28.4941 12.4549 27.6685C11.4073 28.4941 9.89493 28.7629 8.91061 28.7629C7.92629 28.7629 6.41397 28.4941 5.36629 27.6685C4.31861 28.4941 2.80565 28.7629 1.82133 28.7629C1.37973 28.7629 0.995093 28.7232 0.639893 28.6688" stroke="white" stroke-width="2" stroke-miterlimit="10" stroke-linecap="round" stroke-linejoin="round"/>
<path d="M31.3599 31.1335C31.0437 31.2448 30.6617 31.3229 30.1785 31.3229C29.1941 31.3229 27.6812 31.0541 26.6335 30.2285C25.5858 31.0541 24.0735 31.3229 23.0892 31.3229C22.1049 31.3229 20.5925 31.0541 19.5442 30.2285C18.4965 31.0541 16.9842 31.3229 15.9999 31.3229C15.0156 31.3229 13.5033 31.0541 12.4549 30.2285C11.4073 31.0541 9.89493 31.3229 8.91061 31.3229C7.92629 31.3229 6.41397 31.0541 5.36629 30.2285C4.31861 31.0541 2.80565 31.3229 1.82133 31.3229C1.37973 31.3229 0.995093 31.2832 0.639893 31.2288" stroke="white" stroke-width="2" stroke-miterlimit="10" stroke-linecap="round" stroke-linejoin="round"/>
<path d="M28.1601 19.8719C28.1601 20.4601 27.5719 20.4799 27.5719 20.4799H26.2823C26.2823 20.4799 25.6001 20.4415 25.6001 19.8534C25.6001 19.511 25.6001 19.0175 25.6001 19.0175C25.6001 19.0175 25.6219 18.7705 26.018 18.7705C26.4148 18.7705 26.4532 19.0175 26.4532 19.0175V19.5295C26.4532 19.5295 26.4929 19.7772 26.8711 19.7772C27.2494 19.7772 27.307 19.5295 27.307 19.5295V19.0175C27.307 19.0175 27.3467 18.7705 27.7435 18.7705C28.1409 18.7705 28.1601 19.0175 28.1601 19.0175C28.1601 19.0175 28.1601 19.5494 28.1601 19.8719Z" fill="white"/>
<path d="M24.8102 16.5654L19.2 10.2402H14.08L12.8 14.0802H9.60001L6.40001 10.2402H3.84001L5.12001 13.4402L2.94849 16.6799" stroke="white" stroke-width="2" stroke-miterlimit="10" stroke-linecap="round" stroke-linejoin="round"/>
<path d="M4 17.2798H23.28" stroke="white" stroke-width="2" stroke-miterlimit="10" stroke-linecap="round" stroke-linejoin="round"/>
<path d="M20.8914 28.3713C25.3004 27.5291 30.0626 23.8049 31.3145 18.1973C31.3913 17.8472 31.3893 17.4606 31.1653 17.1816C30.9401 16.9013 30.4396 16.6401 30.0799 16.6401H24.3199L21.7599 20.4801H4.47989L3.19989 16.6401H1.91989C1.26645 16.6401 0.639893 17.2673 0.639893 17.9201V21.4651C0.639893 24.7272 2.65973 26.9345 4.56501 27.9374" stroke="white" stroke-width="2.0021" stroke-miterlimit="10" stroke-linecap="round" stroke-linejoin="round"/>
<path d="M5.01318 14.0801H22.4269" stroke="white" stroke-width="2" stroke-miterlimit="10" stroke-linecap="round" stroke-linejoin="round"/>
</g>
<defs>
<clipPath id="clip0_458_4484">
<rect width="32" height="32" fill="white"/>
</clipPath>
</defs>
</svg>
