<svg width="27" height="27" viewBox="0 0 27 27" fill="none" xmlns="http://www.w3.org/2000/svg">
<path d="M8.92187 13.3906C8.51548 12.3936 8.30845 11.3266 8.3125 10.25C8.3125 8.58122 8.80735 6.94992 9.73447 5.56238C10.6616 4.17484 11.9794 3.09338 13.5211 2.45477C15.0629 1.81616 16.7594 1.64907 18.3961 1.97463C20.0328 2.30019 21.5362 3.10378 22.7162 4.28379C23.8962 5.4638 24.6998 6.96721 25.0254 8.60393C25.3509 10.2406 25.1838 11.9371 24.5452 13.4789C23.9066 15.0206 22.8252 16.3384 21.4376 17.2655C20.0501 18.1927 18.4188 18.6875 16.75 18.6875C15.6734 18.6915 14.6064 18.4845 13.6094 18.0781V18.0781L12.0625 19.625H9.25V22.4375H6.4375V25.25H1.75V20.5625L8.92187 13.3906Z" stroke="#00CD83" stroke-width="1.875" stroke-linecap="round" stroke-linejoin="round"/>
<path d="M19.0938 9.3125C19.8704 9.3125 20.5 8.6829 20.5 7.90625C20.5 7.1296 19.8704 6.5 19.0938 6.5C18.3171 6.5 17.6875 7.1296 17.6875 7.90625C17.6875 8.6829 18.3171 9.3125 19.0938 9.3125Z" fill="#00CD83"/>
</svg>
