<svg width="32" height="32" viewBox="0 0 32 32" fill="none" xmlns="http://www.w3.org/2000/svg">
<path d="M7.82397 11.2538L3.89297 6.2998L1.07397 7.3258L3.12597 12.9638" stroke="white" stroke-width="2" stroke-linecap="round" stroke-linejoin="round"/>
<path d="M20.0401 6.807L12.6061 1L9.78711 2.026L14.4021 8.86" stroke="white" stroke-width="2" stroke-linecap="round" stroke-linejoin="round"/>
<path d="M21.153 12.788L29.61 9.70903C30.0985 9.52038 30.4936 9.14762 30.7103 8.67083C30.927 8.19405 30.948 7.65129 30.7689 7.15916C30.5898 6.66704 30.2247 6.26481 29.7522 6.03891C29.2797 5.81301 28.7375 5.78146 28.242 5.95103L26.805 5.28003C26.4479 5.11355 26.0615 5.01903 25.6679 5.00187C25.2743 4.98471 24.8812 5.04525 24.511 5.18003L3.12598 12.964L4.15198 15.783C6.614 16.9311 9.43125 17.0541 11.984 16.125L16.078 14.635" stroke="white" stroke-width="2" stroke-linecap="round" stroke-linejoin="round"/>
<path d="M9 23H5C4.20435 23 3.44129 23.3161 2.87868 23.8787C2.31607 24.4413 2 25.2044 2 26C2 26.7956 2.31607 27.5587 2.87868 28.1213C3.44129 28.6839 4.20435 29 5 29H26" stroke="white" stroke-width="2" stroke-linecap="round" stroke-linejoin="round"/>
<path d="M20.13 21.6729L17.311 22.6989L15.77 12.6179L21.408 10.5659L20.13 21.6729Z" stroke="white" stroke-width="2" stroke-linecap="round" stroke-linejoin="round"/>
<path d="M11 25C12.1046 25 13 24.1046 13 23C13 21.8954 12.1046 21 11 21C9.89543 21 9 21.8954 9 23C9 24.1046 9.89543 25 11 25Z" stroke="white" stroke-width="2" stroke-linecap="round" stroke-linejoin="round"/>
<path d="M28 31C29.1046 31 30 30.1046 30 29C30 27.8954 29.1046 27 28 27C26.8954 27 26 27.8954 26 29C26 30.1046 26.8954 31 28 31Z" stroke="white" stroke-width="2" stroke-linecap="round" stroke-linejoin="round"/>
</svg>
